<svg width="1084" height="350" viewBox="0 0 1084 350" fill="none" xmlns="http://www.w3.org/2000/svg">
<path d="M0.168274 3.041L3.55775 13.1686H61.3573V168.356H86.3491V13.1686H144.227L147.5 3.041H0.168274Z" fill="#542A69"/>
<path d="M267.592 162.542L206.251 6.5454L205.134 3.69562H182.877L179.179 13.2079L118.644 162.542L116.334 168.356H127.386L128.503 165.506L139.208 139.013L141.749 133.005H228.623L231.126 139.051L241.408 165.506L242.602 168.356H269.827L267.592 162.542ZM145.793 122.878L146.448 121.222L185.61 22.9501L222.654 117.063L224.772 122.878H145.793Z" fill="#542A69"/>
<path d="M346.136 3.08032H281.48V168.356H306.857V128.154H346.136C383.796 128.154 418.338 100.544 418.338 66.5416V64.6927C418.299 30.6512 383.796 3.08032 346.136 3.08032ZM393.192 66.5794C393.192 94.8064 375.633 117.718 346.136 117.718H306.857V113.021V18.2135V13.5164H346.136C375.67 13.5164 393.192 36.4279 393.192 64.6549V66.5794Z" fill="#542A69"/>
<path d="M571.43 67.1962V65.3473C571.43 31.3058 537.197 3.73492 499.575 3.73492H451.21H434.651L434.611 13.2457V168.356H459.642V163.928L459.603 133.237V128.809H499.575C500.885 128.809 502.463 128.769 504.041 128.731C508.701 128.615 513.091 131.004 515.595 134.931L535.425 166.161L536.811 168.356H567.58L563.189 161.656L537.197 122.3C537.197 122.3 539.392 121.299 541.664 120.067C561.572 109.285 571.43 89.6451 571.43 67.1962ZM499.575 120.722H459.603V11.8216H499.575C529.072 11.8216 546.324 35.7354 546.324 65.2324V67.2733C546.324 96.8081 529.072 120.722 499.575 120.722Z" fill="#542A69"/>
<path d="M666.262 0.115662C622.094 0.115662 582.43 38.3917 582.43 85.4105C582.43 132.467 622.094 170.705 666.262 170.705C710.469 170.705 750.595 132.428 750.595 85.3712C750.595 38.3539 710.469 0.115662 666.262 0.115662ZM679.393 159.229C643.965 165.16 615.277 136.856 608.077 96.1534C600.838 55.4509 617.781 17.5211 653.169 11.6296C688.597 5.69878 718.248 32.5002 725.487 73.2026C732.688 113.905 714.782 153.3 679.393 159.229Z" fill="#542A69"/>
<path d="M723.136 0.115662C678.968 0.115662 639.305 38.3917 639.305 85.4105C639.305 132.467 678.968 170.705 723.136 170.705C767.343 170.705 807.469 132.428 807.469 85.3712C807.469 38.3539 767.343 0.115662 723.136 0.115662ZM736.267 159.229C700.84 165.16 672.152 136.856 664.951 96.1534C657.712 55.4509 674.655 17.5211 710.044 11.6296C745.471 5.69878 775.123 32.5002 782.361 73.2026C789.562 113.905 771.656 153.3 736.267 159.229Z" fill="#542A69"/>
<path d="M1002.1 77.2467C974.373 67.234 956.851 62.9979 953.078 46.6704C951.037 37.7764 955.696 12.5911 991.124 12.5911C1012.73 12.5911 1028.32 24.6055 1038.22 39.8551L1052.97 34.3491C1040.11 14.4778 1018.66 4.00403 990.662 4.00403C949.035 4.00403 931.476 30.6512 931.476 47.5185C931.476 78.1704 962.359 87.9519 987.812 97.1543C1016.62 107.59 1036.53 113.982 1036.41 132.197C1036.25 150.642 1019.08 162.657 999.211 162.657C966.17 162.657 953.232 147.369 949.304 129.809L933.4 133.005C939.869 159.346 962.936 172.669 994.975 172.669C1025.55 172.669 1058.44 161.232 1058.44 129.732C1058.44 101.814 1028.4 86.7575 1002.1 77.2467Z" fill="#542A69"/>
<path d="M850.852 125.337C850.286 135.671 848.594 146.189 844.231 152.323C840.221 157.961 840.536 153.799 836.594 162.974C832.082 173.486 810.251 174.437 798.999 178.698C791.186 181.655 796.66 184.554 786.959 185.384C777.789 186.167 779.894 184.791 771.989 188.332C759.191 194.063 737.451 193.275 723.54 192.203C721.803 192.069 702.296 197.067 692.25 197.369C686.251 197.549 681.15 195.103 675.485 196.65C670.425 198.031 664.399 199.044 658.707 198.068C656.675 197.72 656.545 197.377 655.933 197.319L646.789 199.8C649.471 200.124 652.983 200.24 655.505 200.668C664.707 202.227 658.039 203.731 670.272 201.767C673.275 201.285 676.286 201.678 679.426 201.835C679.192 204.624 677.691 203.286 679.035 205.714C692.845 203.72 680.066 202.192 710.614 202.58L725.606 204.266C729.981 203.642 735.828 201.605 741.199 204.293C740.346 207.811 743.113 205.302 738.869 207.113C733.888 209.238 726.048 206.839 721.62 206.352C715.167 205.64 715.819 207.742 711.58 207.483C707.841 207.255 706.991 204.577 702.686 204.783C698.649 204.978 698.063 206.9 694.213 207.291C690.13 207.704 688.429 206.582 684.166 207.293C675.159 208.794 670.593 208.245 661.344 207.975C671.821 218.034 685.478 206.097 693.095 211.42C691.11 215.642 682.997 215.715 678.506 217.014C675.361 217.921 673.728 218.949 671.17 219.845C668.433 220.804 664.916 220.897 663.339 221.597C667.737 225.64 672.708 221.268 678.241 219.776C684.443 218.102 691.521 217.968 698.344 218.337L691.967 222.285C685.797 225.173 674.386 226.425 672.047 232.684C678.707 229.938 681.07 227.793 689.956 226.428C701.426 224.666 700.188 223.011 708.552 220.007C714.189 221.112 711.146 222.875 716.523 222.583C728.408 221.939 720.407 215.618 740.191 224.601C755.242 231.436 762.505 219.52 774.584 220.97C772.176 223.026 768.551 224.069 764.919 225.008C758.311 226.719 759.217 227.519 754.127 229.472C750.847 230.733 744.988 231.718 741.16 231.748C734.996 231.796 731.186 232.516 726.76 232.738C721.76 232.989 719.536 231.903 713.501 232.566C702.267 233.796 679.682 230.411 673.982 239.107C684.704 237.363 676.766 237.23 693.284 236.833C700.669 236.657 708.057 237.003 715.432 237.258C712.958 241.925 706.119 244.424 700.776 247.419C692.247 252.198 687.297 245.729 678.819 245.78L680.08 246.84C689.46 252.942 703.915 251.156 713.104 246.515C724.964 240.524 732.418 237.766 747.86 237.276C738.94 243.661 736.317 252.872 723.426 254.747C717.515 255.609 711.233 253.849 704.252 254.966C696.214 256.254 692.998 258.189 683.88 257.19C689.076 263.242 692.643 258.342 701.431 259.107C708.536 259.722 715.74 259.675 722.634 260.446C705.162 270.337 717.545 264.988 699.78 271.808C699.466 271.929 698.545 272.31 698.255 272.447C696.386 273.32 697.097 272.955 696.09 273.657C718.927 274.825 723.712 263.036 738.225 252.284C743.174 248.618 747.518 249.005 753.597 246.305C768.882 239.515 776.382 243.488 786.233 237.184C793.051 232.82 800.272 219.455 811.674 221.402C813.459 228.652 807.069 237.502 799.516 239.278C789.235 241.696 786.429 244.087 777.28 248.55C765.716 254.194 761.658 250.583 750.411 253.188C743.686 254.745 733.9 259.805 730.777 265.47C735.017 263.712 742.176 258.971 745.249 258.496C751.889 257.473 757.979 259.745 764.971 260.174C763.125 262.787 760.528 266.426 758.502 269.227C751.655 267.995 752.848 266.105 743.382 267.6C736.943 268.619 734.975 270.226 729.383 271.938C721.639 274.307 709.596 278.189 703.504 281.429C719.127 281.473 730.55 271.705 745.833 270.84C743.518 280.747 724.253 282.247 726.114 298.611C733.155 286.193 728.724 290.893 741.733 281.232C749.709 275.312 755.44 282.774 766.139 272.05C776.958 261.205 765.178 270.14 783.669 256C790.597 250.704 792.87 243.166 806.907 245.422C804.553 264.699 788.337 240.454 775.234 273.031C780.866 265.386 781.906 257.71 794.224 259.184C799.177 269.422 791.719 267.608 783.926 272.53C753.576 291.702 736.319 282.61 738.316 311.354C740.109 307.532 739.368 304.867 742.363 301.209C744.327 298.815 747.6 297.055 750.554 295.197C756.282 291.591 762.213 288.017 769.409 285.928C759.344 293.986 756.845 309.45 753.499 321.394C759.326 313.794 753.794 313.603 766.321 299.138L772.373 313.671C773.148 315.055 773.234 315.088 773.854 315.832C773.213 304.956 768.082 300.47 774.553 289.617C778.352 283.246 792.8 275.695 795.887 281.857C795.966 282.011 796.156 282.365 796.25 282.558C796.345 282.75 796.474 283.063 796.575 283.275C801.218 293.037 801.729 289.188 796.976 300.875C795.145 305.376 795.218 303.861 792.814 306.861C787.037 314.064 787.925 328.956 782.405 335.178C790.667 331.264 789.477 318.766 794.454 311.587C797.11 307.751 799.324 308.451 802.473 306.345C807.958 302.68 806.304 293.576 806.768 285.665C807.048 280.928 808.112 279.501 809.344 275.512L811.835 267.817C816.774 259.6 823.572 273.551 822.374 279.266C821.107 285.301 815.352 288.941 814.48 296.925C833.525 270.99 824.226 273.193 819.101 255.58C816.95 248.192 819.901 243.191 825.602 242.163C833.026 244.897 834.871 255.81 837.878 264.291C842.356 276.925 834.481 278.572 829.076 287.159C826.319 291.541 825.972 295.667 823.632 299.013C821.098 302.635 818.395 304.98 815.691 309.397C813.408 313.124 809.574 333.199 809.426 338.542C814.604 329.198 815.945 303.742 830.63 304.151C834.95 316.387 831.678 319.67 829.548 337.562C828.806 343.811 827.019 344.686 828.662 347.82C831.404 341.845 830.865 325.194 837.527 322.199C835.695 332.531 837.187 335.357 844.944 338.663C854.446 342.715 852.113 345.616 858.78 349.625C854.452 339.587 856.552 341.622 847.531 336.054C840.844 331.925 838.718 327.479 840.242 317.602C845.271 319.697 842.983 325.104 849.256 328.693C847.637 317.67 841.657 322.772 842.826 304.014C858.553 314.397 854.029 311.444 861.01 325.391C860.718 305.282 849.534 306.994 844.937 296.917C845.789 286.504 854.842 291.69 851.067 274.537C849.056 265.41 844.634 258.858 845.503 248.976C857.574 250.372 853.294 258.794 853.817 268.804C857.355 263.582 858.859 252.983 854.335 248.831C850.931 245.705 848.696 246.843 846.383 243.572C840.768 235.636 845.637 225.749 859.529 233.811C859.036 241.588 859.113 242.264 860.735 249.554C863.595 262.389 857.54 262.117 863.449 280.428C868.773 296.928 884.061 288.214 871.809 316.669C867.893 325.766 865.611 338.001 872.486 346.199C871.216 339.64 869.243 332.518 872.178 326.228C874.544 321.162 877.723 315.498 881.581 312.497C895.186 322.886 884.805 359.36 902.977 346.692C884.721 346.124 895.85 334.413 892.069 321.04C890.421 315.209 886.058 307.267 885.207 302.594C883.554 293.519 885.377 290.362 879.858 283.375C876.988 279.742 871.402 274.31 873.653 264.525C875.416 266.262 877.342 269.529 879.425 271.587C882.748 274.871 885.069 274.37 888.874 276.373C892.642 281.934 890.815 286.196 893.977 292.675C897.652 300.218 896.636 301.609 895.372 309.846C894.107 318.093 894.642 321.285 898.946 326.395C902.376 330.469 906.065 333.81 908.978 337.564C907.352 331.86 904.15 328.945 900.553 324.81C895.386 318.869 898.91 315.433 900.396 308.77C901.92 301.946 902.449 297.184 899.233 291.475C896.9 287.333 890.681 281.7 898.054 277.489C899.496 277.182 909.317 284.433 910.356 286.478C915.868 297.338 901.471 314.128 911.757 325.798C919.928 335.068 914.295 336.085 917.189 341.868C920.955 334.602 917.02 330.669 917.02 322.469C924.343 324.451 922.74 324.258 927.376 328.492L935.568 337.417C935.176 332.265 932.729 328.292 928.945 324.88C919.712 316.551 910.003 318.405 920.016 303.149C937.874 303.92 934.765 314.704 944.213 334.06C944.405 325.541 938.962 323.193 939.753 311.993C946.505 314.202 946.303 321.806 960.838 325.339C945.835 314.968 954.585 321.747 950.65 314.453C946.748 307.219 933.402 304.566 928.612 296.718C917.674 278.791 918.027 283.68 905.477 272.995C901.375 269.502 899.496 270.733 896.21 266.17C897.86 259.177 902.559 260.914 906.585 264.785C909.754 267.832 910.507 271.357 915.036 275.205C910.584 268.657 909.449 258.209 899.969 258.043C893.511 257.929 890.363 259.756 885.672 256.164C882.579 253.791 879.471 249.67 881.176 244.813C887.384 243.67 920.078 257.557 922.521 266.093C924.939 274.526 922.164 275.107 927.326 283.725C936.773 299.506 942.279 295.034 950.059 303.721C953.156 307.178 956.898 310.885 961.041 314.143C966.193 318.195 970.121 319.604 977.205 316.411C965.836 315.585 967.93 315.532 961.174 309.919C957.919 307.213 958.106 307.869 955.559 304.378C948.887 295.227 944.743 299.575 936.93 289.42C933.497 284.954 928.319 282.791 930.785 274.866C933.651 276.841 933.501 276.96 936.539 279.615C939.045 281.805 940.681 282.158 943.387 283.958C953.486 290.677 943.703 291.413 973.942 300.239C981.597 302.472 983.213 304.346 989.163 307.987C982.236 294.834 971.05 295.853 956.962 288.723C952.103 286.264 952.596 286.525 949.611 282.814C943.286 274.957 935.926 272.14 929.669 263.056C922.355 252.432 913.221 244.503 902.127 238.723C895.492 235.266 891.806 232.059 885.922 228.47C881.85 225.986 870.962 220.721 875.536 214.574C879.321 211.037 889.683 219.18 892.669 221.699C900.83 228.584 894.362 227.926 908.091 232.756C921.567 237.499 925.02 253.193 949.448 270.805L1002.06 298.252C999.779 293.867 995.017 291.993 990.973 289.315C986.82 286.563 983.554 282.666 979.563 280.352C970.994 275.385 959.344 271.806 953.738 265.454C977.107 265.978 999.342 272.644 1017.78 283.266C1011.87 272.453 1006.95 274.568 994.447 269.537C986.034 266.154 973.732 264.547 964.732 261.524C944.885 254.86 955.637 261.535 943.352 245.35C937.18 237.217 922.991 238.509 922.532 227.9C927.138 228.78 945.953 236.214 948.063 239.571C951.132 244.442 951.085 247.282 956.206 249.734C960.016 251.559 966.197 251.885 971.203 254.123C990.403 262.702 996.432 261.142 1015 266.238C1019.78 267.549 1024.51 270.313 1028.65 270.99C1021.92 267.866 1021.29 265.514 1011.62 262.545C1002.01 259.591 989.797 258.855 981.323 253.153C978.621 251.335 975.819 250.242 972.063 249.203C963.85 246.928 957.136 247.118 954.735 239.645C963.528 238.383 967.219 235.848 976.115 238.007C997.261 243.139 991.85 244.826 1019 246.952C1031.12 247.898 1030.84 249.147 1039.16 253.141C1028.98 238.179 1012.7 248.509 998.221 237.284C1012.4 237.71 1014.02 236.008 1023.03 236.04C1034.89 236.081 1039.02 238.602 1048.12 239.584C1022.93 227.5 1015.53 234.549 988.27 231.087C971.139 228.91 953.816 233.48 937.31 227.905C931.944 226.091 930.027 222.615 926.931 221.088C932.841 221.224 946.987 225.725 958.215 226.394C970.139 227.105 978.68 221.984 987.588 217.676C996.122 213.547 1003.46 221.877 1017.98 222.365C1024.53 222.583 1030.71 222.551 1037.29 223.07C1044.24 223.617 1047.11 225.844 1053.8 226.042L1049.18 222.869C1047.55 222.18 1045.21 221.51 1043.04 221.185C1037.37 220.328 1010.74 215.419 1006.32 212.833L1005.08 211.922C1004.95 211.825 1004.68 211.604 1004.51 211.42C1010.05 205.09 1022.84 207.902 1031.34 209.468C1033.31 209.831 1060.87 210.412 1062.86 210.161C1053.48 204.59 1032.69 210.782 1026.38 202.121C1036.64 201.444 1042.71 206.263 1053.95 202.658C1062.78 199.826 1073.89 200.981 1083.81 199.808L1066.84 198.046C1066.74 198.17 1066.7 197.721 1066.67 197.85L1065.99 196.926C1064.31 196.329 1059.63 197.992 1056.69 197.948L1024.36 195.957C1018.32 195.126 1015 193.059 1010.57 192.286C1007.24 191.704 988.241 195.186 963.29 189.783C957.089 188.44 956.82 186.126 950.323 185.6C943.833 185.075 939.398 186.566 936.454 181.952C934.295 178.565 937.137 179.794 932.91 177.388C930.15 175.818 929.859 176.833 926.839 174.293C921.909 170.152 901.436 169.147 893.894 166.672C886.451 164.229 889.933 161.517 886.099 157.167C883.128 153.796 880.739 154.243 878.602 147.399C875.573 137.701 882.113 134.017 876.508 116.817C876.12 115.627 875.926 114.874 875.844 114.317V113.071C875.93 112.477 876.096 111.816 876.087 110.318C876.079 109.095 875.987 108.432 875.844 107.958V13.1686H933.722L936.995 3.041H789.663L793.053 13.1686H850.852V103.53V125.337ZM924.68 212.099C939.904 216.602 958.995 221.046 973.28 212.563C965.986 211.08 955.326 207.403 948.727 208.014C945.647 208.3 926.133 211.431 924.68 212.099ZM746.155 212.649C756.828 216.59 754.096 217.933 767.951 214.791C775.844 213.001 783.568 210.706 791.236 209.249C779.127 201.655 764.358 207.71 751.609 210.75L746.155 212.649ZM821.624 229.619C828.911 227.811 831.298 223.297 835.267 219.053C838.791 215.283 845.221 210.366 846.238 205.11C838.347 206.54 835.005 209.889 830.995 214.773C827.016 219.619 824.374 223.53 821.624 229.619Z" fill="#542A69"/>
</svg>
